<svg width="960" height="720" viewBox="0 0 960 720" fill="none" xmlns="http://www.w3.org/2000/svg" role="img" aria-labelledby="title desc">
  <title id="title">Teamwork and web design illustration</title>
  <desc id="desc">Abstract illustration showing a website layout and collaboration shapes.</desc>
  <rect width="960" height="720" rx="48" fill="url(#paint0_linear)"/>
  <circle cx="168" cy="176" r="92" fill="#FFF2D8" fill-opacity="0.9"/>
  <circle cx="786" cy="146" r="62" fill="#D8F3EC" fill-opacity="0.95"/>
  <rect x="192" y="164" width="576" height="360" rx="28" fill="#FFF9F1" fill-opacity="0.96" stroke="#0F766E" stroke-opacity="0.18" stroke-width="4"/>
  <rect x="228" y="200" width="168" height="22" rx="11" fill="#0F766E" fill-opacity="0.28"/>
  <rect x="228" y="248" width="252" height="18" rx="9" fill="#1F2933" fill-opacity="0.12"/>
  <rect x="228" y="282" width="198" height="18" rx="9" fill="#1F2933" fill-opacity="0.12"/>
  <rect x="228" y="330" width="156" height="96" rx="18" fill="#0F766E" fill-opacity="0.16"/>
  <rect x="402" y="330" width="192" height="96" rx="18" fill="#DC8A46" fill-opacity="0.18"/>
  <rect x="612" y="330" width="120" height="96" rx="18" fill="#1F2933" fill-opacity="0.12"/>
  <circle cx="302" cy="540" r="70" fill="#0F766E" fill-opacity="0.2"/>
  <circle cx="498" cy="538" r="48" fill="#DC8A46" fill-opacity="0.26"/>
  <circle cx="658" cy="534" r="60" fill="#1F2933" fill-opacity="0.12"/>
  <path d="M110 596C182 550 242 550 312 596C384 642 442 642 514 596C586 550 646 550 720 596C792 642 852 642 920 596" stroke="#FFF9F1" stroke-opacity="0.9" stroke-width="18" stroke-linecap="round"/>
  <defs>
    <linearGradient id="paint0_linear" x1="72" y1="38" x2="898" y2="684" gradientUnits="userSpaceOnUse">
      <stop stop-color="#E2ECE8"/>
      <stop offset="0.52" stop-color="#F4EFE6"/>
      <stop offset="1" stop-color="#F8E8D5"/>
    </linearGradient>
  </defs>
</svg>
